<?xml version="1.0" encoding="utf-8"?>
<!-- Generator: Adobe Illustrator 24.1.2, SVG Export Plug-In . SVG Version: 6.00 Build 0)  -->
<svg version="1.1" id="Social_Icons" xmlns="http://www.w3.org/2000/svg" xmlns:xlink="http://www.w3.org/1999/xlink" x="0px"
	 y="0px" viewBox="0 0 600 400" enable-background="new 0 0 600 400" xml:space="preserve">
<g id="_x37__stroke">
	<g id="Instagram_1_">
		<rect x="246.4" y="79.4" fill="none" width="415" height="384.2"/>
		
		<path id="Instagram" fill-rule="evenodd" clip-rule="evenodd" fill="#e5e5e5" d="M589.6,168.9
			c0,12.7-11.2,23.1-24.9,23.1c-13.8,0-24.9-10.3-24.9-23.1c0-12.7,11.2-23.1,24.9-23.1C578.4,145.9,589.6,156.2,589.6,168.9z
			 M453.9,335.5c-38.2,0-69.2-28.7-69.2-64s31-64,69.2-64s69.2,28.7,69.2,64S492.1,335.5,453.9,335.5z M453.9,172.8
			c-58.9,0-106.6,44.2-106.6,98.6s47.7,98.6,106.6,98.6s106.6-44.2,106.6-98.6S512.8,172.8,453.9,172.8z M453.9,114
			c55.4,0,62,0.2,83.8,1.1c20.2,0.9,31.2,4,38.5,6.6c9.7,3.5,16.6,7.6,23.9,14.4c7.3,6.7,11.8,13.1,15.5,22.1
			c2.8,6.8,6.2,16.9,7.1,35.7c1,20.3,1.2,26.3,1.2,77.6s-0.2,57.4-1.2,77.6c-0.9,18.7-4.3,28.9-7.1,35.7c-3.8,9-8.3,15.4-15.5,22.1
			c-7.3,6.7-14.2,10.9-23.9,14.4c-7.3,2.6-18.3,5.8-38.5,6.6c-21.9,0.9-28.4,1.1-83.8,1.1c-55.4,0-62-0.2-83.9-1.1
			c-20.2-0.9-31.2-4-38.5-6.6c-9.7-3.5-16.6-7.6-23.9-14.4c-7.3-6.7-11.8-13.1-15.5-22.1c-2.8-6.8-6.2-16.9-7.1-35.7
			c-1-20.3-1.2-26.3-1.2-77.6c0-51.3,0.2-57.4,1.2-77.6c0.9-18.7,4.3-28.9,7.1-35.7c3.8-9,8.3-15.4,15.5-22.1
			c7.3-6.7,14.2-10.9,23.9-14.4c7.3-2.6,18.3-5.8,38.5-6.6C391.9,114.2,398.5,114,453.9,114z M453.9,79.4c-56.4,0-63.4,0.2-85.6,1.2
			c-22.1,0.9-37.2,4.2-50.4,8.9c-13.6,4.9-25.2,11.5-36.8,22.2s-18.6,21.4-23.9,34c-5.1,12.2-8.6,26.2-9.6,46.6
			c-1,20.5-1.2,27-1.2,79.2s0.2,58.7,1.2,79.2c1,20.4,4.5,34.4,9.6,46.6c5.3,12.6,12.4,23.3,23.9,34c11.5,10.7,23.1,17.2,36.8,22.2
			c13.2,4.7,28.3,8,50.4,8.9c22.1,0.9,29.2,1.2,85.6,1.2s63.4-0.2,85.6-1.2c22.1-0.9,37.2-4.2,50.4-8.9
			c13.6-4.9,25.2-11.5,36.8-22.2c11.5-10.7,18.6-21.4,23.9-34c5.1-12.2,8.6-26.2,9.6-46.6c1-20.5,1.2-27,1.2-79.2
			s-0.2-58.7-1.2-79.2c-1-20.4-4.5-34.4-9.6-46.6c-5.3-12.6-12.4-23.3-23.9-34c-11.5-10.7-23.1-17.2-36.8-22.2
			c-13.2-4.7-28.3-8-50.4-8.9C517.3,79.6,510.3,79.4,453.9,79.4z"/>
	</g>
</g>
</svg>
