<?xml version="1.0" encoding="utf-8"?>
<!-- Generator: Adobe Illustrator 24.1.2, SVG Export Plug-In . SVG Version: 6.00 Build 0)  -->
<svg version="1.1" id="Слой_1" xmlns="http://www.w3.org/2000/svg" xmlns:xlink="http://www.w3.org/1999/xlink" x="0px" y="0px"
	 viewBox="0 0 660 371" style="enable-background:new 0 0 660 371;" xml:space="preserve">
<style type="text/css">
	.st0{fill:#FFE4DF;}
</style>
<path class="st0" d="M309.9,256.8h30.6v30.6h-30.6V256.8z M330.3,83.6c54.5,2.2,78.2,57.3,45.8,98.5c-8.5,10.2-22.1,16.9-28.8,25.5
	c-6.8,8.5-6.8,18.6-6.8,28.8h-30.6c0-17,0-31.4,6.8-41.6c6.7-10.2,20.4-16.2,28.8-22.9c24.7-22.8,18.5-55.1-15.3-57.8
	c-8.1,0-15.9,3.2-21.6,9c-5.7,5.7-9,13.5-9,21.6h-30.6c0-16.2,6.4-31.8,17.9-43.2C298.5,90.1,314.1,83.6,330.3,83.6z"/>
</svg>
