<?xml version="1.0" encoding="utf-8"?>
<!-- Generator: Adobe Illustrator 24.1.2, SVG Export Plug-In . SVG Version: 6.00 Build 0)  -->
<svg version="1.1" xmlns="http://www.w3.org/2000/svg" xmlns:xlink="http://www.w3.org/1999/xlink" x="0px" y="0px"
	 viewBox="0 0 226.772 226.772" enable-background="new 0 0 226.772 226.772" xml:space="preserve">
<g id="Layer_1">
	<g id="code_x5F_html5">
	</g>
	<g>
		<polygon fill="#E6A329" points="192.756,30.245 113.386,30.245 113.386,30.245 34.016,30.245 48.89,188.106 113.386,205.993 
			113.386,205.993 113.386,205.993 113.386,205.993 113.386,205.993 177.858,188.106 		"/>
		<polygon fill="#F1BF22" points="113.386,43.104 113.386,192.624 113.386,192.624 165.613,178.141 178.332,43.104 		"/>
		<polygon fill="#FFFFFF" points="154.938,62.474 74.606,62.474 69.023,121.582 69.142,121.211 137.379,121.211 135.152,146.213 
			113.386,152.352 91.287,146.121 89.961,130.99 69.899,130.99 72.765,161.227 113.386,172.511 154.006,161.227 159.597,101.888 
			87.19,101.888 88.112,82.1 138.37,82.1 139.109,93.425 159.35,93.425 		"/>
		<g>
			<path fill="#EBEBEB" d="M113.386,62.474h-38.78l-5.583,59.108l0.118-0.371h44.244v-19.324H89.983L90.906,82.1h22.48V62.474z
				 M89.961,130.99H69.899l2.867,30.237l40.62,11.26v-20.135l-22.099-6.232L89.961,130.99z"/>
		</g>
	</g>
</g>
<g id="Layer_2">
</g>
</svg>
