<?xml version="1.0" encoding="utf-8"?>
<!-- Generator: Adobe Illustrator 24.1.2, SVG Export Plug-In . SVG Version: 6.00 Build 0)  -->
<svg version="1.1" id="Слой_1" xmlns="http://www.w3.org/2000/svg" xmlns:xlink="http://www.w3.org/1999/xlink" x="0px" y="0px"
	 viewBox="0 0 600 400" enable-background="new 0 0 600 400" xml:space="preserve">
<g>
	<ellipse fill="#E5E5E5" cx="446.5" cy="245" rx="244.5" ry="245"/>
</g>
<path fill="#FFFFFF" d="M292,228.5l265.3-103.9c5.4-2.1,10.9,2.6,9.7,8.2L520,359.1c-1.2,6.1-8.5,8.8-13.5,5.1l-105.4-78.9
	c-0.2-0.2-0.4-0.6-0.1-0.9l104.5-108.3c0.5-0.5-0.1-1.3-0.7-1L367.3,266c-0.1,0.1-0.4,0.1-0.5,0.1l-74.8-27.2
	C287.3,237.1,287.2,230.3,292,228.5z"/>
<polygon fill="#D1E3EF" points="367,266.1 393.8,357.4 400.5,284.8 509.4,172.1 "/>
<polygon fill="#B6CCDD" points="393.8,357.4 438.2,312.9 400.5,284.8 "/>
</svg>
