<?xml version="1.0" encoding="utf-8"?>
<!-- Generator: Adobe Illustrator 24.1.2, SVG Export Plug-In . SVG Version: 6.00 Build 0)  -->
<svg version="1.1" id="Capa_1" xmlns="http://www.w3.org/2000/svg" xmlns:xlink="http://www.w3.org/1999/xlink" x="0px" y="0px"
	 viewBox="0 0 600 400" enable-background="new 0 0 600 400" xml:space="preserve">
<g>
	<g>
		<ellipse id="XMLID_11_" fill="#E5E5E5" cx="431.9" cy="236.1" rx="241.4" ry="236.1"/>
	</g>
	<path fill-rule="evenodd" clip-rule="evenodd" fill="#FFFFFF" d="M422.4,339.7h18.9c0,0,5.6-0.4,8.6-3.8c2.6-2.9,2.6-8,2.6-8
		s-0.4-24.8,11.6-28.6c11.6-3.8,26.7,24,42.6,34.5c12,8,21.1,6.3,21.1,6.3l42.2-0.4c0,0,21.9-1.3,11.6-18.5
		c-0.9-1.3-6-12.6-31.4-35.8c-26.7-24-22.8-20.2,9-61.9c19.4-25.3,27.1-40.8,25-47.6c-2.2-6.3-16.8-4.6-16.8-4.6l-47.8,0.4
		c0,0-3.4-0.4-6,1.3c-2.6,1.7-4.3,5.1-4.3,5.1s-7.7,19.8-17.6,36.2c-21.1,35.4-29.7,37-33.1,34.9c-8.2-5.1-6-20.6-6-31.6
		c0-34.1,5.2-48.4-10.3-52.2c-5.2-1.3-9-2.1-22.4-2.1c-17.2,0-31.4,0-39.6,3.8c-5.6,2.5-9.5,8.4-6.9,8.8c3,0.4,10.3,1.7,14.2,6.7
		c4.7,6.3,4.7,21,4.7,21s3,40.4-6.5,45c-6.5,3.4-15.1-3.4-34-35.4c-9.9-16.4-17.2-34.5-17.2-34.5s-1.3-3.4-3.9-5.1
		c-3-2.1-7.3-2.9-7.3-2.9l-45.2,0.4c0,0-6.9,0-9.5,2.9c-2.2,2.5,0,8,0,8s35.3,81.2,75.7,122.1C380.7,342.2,422.4,339.7,422.4,339.7
		L422.4,339.7z"/>
</g>
</svg>
